<mxfile host="app.diagrams.net" modified="2024-01-10T08:06:37.455Z" agent="Mozilla/5.0 (Windows NT 10.0; Win64; x64) AppleWebKit/537.36 (KHTML, like Gecko) Chrome/120.0.0.0 Safari/537.36 Edg/120.0.0.0" etag="Cj8ZknOGSLFURqg84EUo" version="22.1.18" type="github">
  <diagram name="第 1 页" id="cXNGWA-zru0SS1t2wgvX">
    <mxGraphModel dx="837" dy="632" grid="1" gridSize="10" guides="1" tooltips="1" connect="1" arrows="1" fold="1" page="1" pageScale="1" pageWidth="827" pageHeight="1169" math="0" shadow="0">
      <root>
        <mxCell id="0" />
        <mxCell id="1" parent="0" />
        <mxCell id="xcD2mLkFD6Cfy0FQ_EIR-45" value="" style="rounded=0;whiteSpace=wrap;html=1;fillColor=#fff2cc;strokeColor=#d6b656;" vertex="1" parent="1">
          <mxGeometry x="450" y="240" width="250" height="410" as="geometry" />
        </mxCell>
        <mxCell id="xcD2mLkFD6Cfy0FQ_EIR-43" value="" style="rounded=0;whiteSpace=wrap;html=1;fillColor=#ffe6cc;strokeColor=#d79b00;" vertex="1" parent="1">
          <mxGeometry x="80" y="240" width="370" height="410" as="geometry" />
        </mxCell>
        <mxCell id="xcD2mLkFD6Cfy0FQ_EIR-6" style="edgeStyle=orthogonalEdgeStyle;rounded=0;orthogonalLoop=1;jettySize=auto;html=1;exitX=0.5;exitY=1;exitDx=0;exitDy=0;entryX=0.5;entryY=0;entryDx=0;entryDy=0;" edge="1" parent="1" source="xcD2mLkFD6Cfy0FQ_EIR-1" target="xcD2mLkFD6Cfy0FQ_EIR-4">
          <mxGeometry relative="1" as="geometry" />
        </mxCell>
        <mxCell id="xcD2mLkFD6Cfy0FQ_EIR-7" style="edgeStyle=orthogonalEdgeStyle;rounded=0;orthogonalLoop=1;jettySize=auto;html=1;exitX=0.5;exitY=0;exitDx=0;exitDy=0;startArrow=classic;startFill=1;endArrow=none;endFill=0;" edge="1" parent="1" source="xcD2mLkFD6Cfy0FQ_EIR-1">
          <mxGeometry relative="1" as="geometry">
            <mxPoint x="370" y="150" as="targetPoint" />
          </mxGeometry>
        </mxCell>
        <mxCell id="xcD2mLkFD6Cfy0FQ_EIR-1" value="采集数据" style="rounded=0;whiteSpace=wrap;html=1;" vertex="1" parent="1">
          <mxGeometry x="330" y="190" width="80" height="30" as="geometry" />
        </mxCell>
        <mxCell id="xcD2mLkFD6Cfy0FQ_EIR-5" style="edgeStyle=orthogonalEdgeStyle;rounded=0;orthogonalLoop=1;jettySize=auto;html=1;exitX=0.5;exitY=1;exitDx=0;exitDy=0;entryX=0.5;entryY=0;entryDx=0;entryDy=0;" edge="1" parent="1" source="xcD2mLkFD6Cfy0FQ_EIR-4" target="xcD2mLkFD6Cfy0FQ_EIR-12">
          <mxGeometry relative="1" as="geometry">
            <mxPoint x="270" y="390" as="targetPoint" />
          </mxGeometry>
        </mxCell>
        <mxCell id="xcD2mLkFD6Cfy0FQ_EIR-10" value="是" style="edgeLabel;html=1;align=center;verticalAlign=middle;resizable=0;points=[];" vertex="1" connectable="0" parent="xcD2mLkFD6Cfy0FQ_EIR-5">
          <mxGeometry x="-0.0667" y="1" relative="1" as="geometry">
            <mxPoint x="54" y="-21" as="offset" />
          </mxGeometry>
        </mxCell>
        <mxCell id="xcD2mLkFD6Cfy0FQ_EIR-8" style="edgeStyle=orthogonalEdgeStyle;rounded=0;orthogonalLoop=1;jettySize=auto;html=1;exitX=1;exitY=0.5;exitDx=0;exitDy=0;entryX=0.5;entryY=0;entryDx=0;entryDy=0;" edge="1" parent="1" source="xcD2mLkFD6Cfy0FQ_EIR-4" target="xcD2mLkFD6Cfy0FQ_EIR-1">
          <mxGeometry relative="1" as="geometry">
            <Array as="points">
              <mxPoint x="490" y="295" />
              <mxPoint x="490" y="170" />
              <mxPoint x="370" y="170" />
            </Array>
          </mxGeometry>
        </mxCell>
        <mxCell id="xcD2mLkFD6Cfy0FQ_EIR-9" value="否" style="edgeLabel;html=1;align=center;verticalAlign=middle;resizable=0;points=[];" vertex="1" connectable="0" parent="xcD2mLkFD6Cfy0FQ_EIR-8">
          <mxGeometry x="-0.3377" y="4" relative="1" as="geometry">
            <mxPoint x="-6" y="-4" as="offset" />
          </mxGeometry>
        </mxCell>
        <mxCell id="xcD2mLkFD6Cfy0FQ_EIR-14" style="edgeStyle=orthogonalEdgeStyle;rounded=0;orthogonalLoop=1;jettySize=auto;html=1;exitX=0.5;exitY=1;exitDx=0;exitDy=0;entryX=0.5;entryY=0;entryDx=0;entryDy=0;" edge="1" parent="1" source="xcD2mLkFD6Cfy0FQ_EIR-4" target="xcD2mLkFD6Cfy0FQ_EIR-13">
          <mxGeometry relative="1" as="geometry" />
        </mxCell>
        <mxCell id="xcD2mLkFD6Cfy0FQ_EIR-4" value="检测人体" style="rhombus;whiteSpace=wrap;html=1;" vertex="1" parent="1">
          <mxGeometry x="290" y="260" width="160" height="70" as="geometry" />
        </mxCell>
        <mxCell id="xcD2mLkFD6Cfy0FQ_EIR-16" style="edgeStyle=orthogonalEdgeStyle;rounded=0;orthogonalLoop=1;jettySize=auto;html=1;exitX=0.5;exitY=1;exitDx=0;exitDy=0;entryX=0.5;entryY=0;entryDx=0;entryDy=0;" edge="1" parent="1" source="xcD2mLkFD6Cfy0FQ_EIR-12" target="xcD2mLkFD6Cfy0FQ_EIR-15">
          <mxGeometry relative="1" as="geometry" />
        </mxCell>
        <mxCell id="xcD2mLkFD6Cfy0FQ_EIR-12" value="计算考生坐姿角度以及视觉角度" style="rounded=0;whiteSpace=wrap;html=1;" vertex="1" parent="1">
          <mxGeometry x="230" y="390" width="100" height="50" as="geometry" />
        </mxCell>
        <mxCell id="xcD2mLkFD6Cfy0FQ_EIR-27" style="edgeStyle=orthogonalEdgeStyle;rounded=0;orthogonalLoop=1;jettySize=auto;html=1;exitX=0.5;exitY=1;exitDx=0;exitDy=0;entryX=0.5;entryY=0;entryDx=0;entryDy=0;" edge="1" parent="1" source="xcD2mLkFD6Cfy0FQ_EIR-13" target="xcD2mLkFD6Cfy0FQ_EIR-20">
          <mxGeometry relative="1" as="geometry" />
        </mxCell>
        <mxCell id="xcD2mLkFD6Cfy0FQ_EIR-13" value="违禁品检测" style="rounded=0;whiteSpace=wrap;html=1;" vertex="1" parent="1">
          <mxGeometry x="489" y="390" width="80" height="30" as="geometry" />
        </mxCell>
        <mxCell id="xcD2mLkFD6Cfy0FQ_EIR-21" style="edgeStyle=orthogonalEdgeStyle;rounded=0;orthogonalLoop=1;jettySize=auto;html=1;exitX=0.5;exitY=1;exitDx=0;exitDy=0;" edge="1" parent="1" source="xcD2mLkFD6Cfy0FQ_EIR-15" target="xcD2mLkFD6Cfy0FQ_EIR-17">
          <mxGeometry relative="1" as="geometry">
            <Array as="points">
              <mxPoint x="280" y="550" />
              <mxPoint x="370" y="550" />
            </Array>
          </mxGeometry>
        </mxCell>
        <mxCell id="xcD2mLkFD6Cfy0FQ_EIR-42" value="否" style="edgeLabel;html=1;align=center;verticalAlign=middle;resizable=0;points=[];" vertex="1" connectable="0" parent="xcD2mLkFD6Cfy0FQ_EIR-21">
          <mxGeometry x="-0.1067" y="-2" relative="1" as="geometry">
            <mxPoint x="-27" y="-22" as="offset" />
          </mxGeometry>
        </mxCell>
        <mxCell id="xcD2mLkFD6Cfy0FQ_EIR-33" style="edgeStyle=orthogonalEdgeStyle;rounded=0;orthogonalLoop=1;jettySize=auto;html=1;exitX=0;exitY=0.5;exitDx=0;exitDy=0;entryX=0.5;entryY=0;entryDx=0;entryDy=0;" edge="1" parent="1" source="xcD2mLkFD6Cfy0FQ_EIR-15" target="xcD2mLkFD6Cfy0FQ_EIR-32">
          <mxGeometry relative="1" as="geometry" />
        </mxCell>
        <mxCell id="xcD2mLkFD6Cfy0FQ_EIR-37" value="是" style="edgeLabel;html=1;align=center;verticalAlign=middle;resizable=0;points=[];" vertex="1" connectable="0" parent="xcD2mLkFD6Cfy0FQ_EIR-33">
          <mxGeometry y="1" relative="1" as="geometry">
            <mxPoint x="14" y="10" as="offset" />
          </mxGeometry>
        </mxCell>
        <mxCell id="xcD2mLkFD6Cfy0FQ_EIR-15" value="是否存在异常行为" style="rhombus;whiteSpace=wrap;html=1;" vertex="1" parent="1">
          <mxGeometry x="210" y="460" width="140" height="60" as="geometry" />
        </mxCell>
        <mxCell id="xcD2mLkFD6Cfy0FQ_EIR-18" style="edgeStyle=orthogonalEdgeStyle;rounded=0;orthogonalLoop=1;jettySize=auto;html=1;exitX=0.5;exitY=1;exitDx=0;exitDy=0;entryX=0.5;entryY=0;entryDx=0;entryDy=0;" edge="1" parent="1" source="xcD2mLkFD6Cfy0FQ_EIR-17" target="xcD2mLkFD6Cfy0FQ_EIR-1">
          <mxGeometry relative="1" as="geometry">
            <mxPoint x="370" y="690" as="targetPoint" />
            <Array as="points">
              <mxPoint x="370" y="690" />
              <mxPoint x="720" y="690" />
              <mxPoint x="720" y="170" />
              <mxPoint x="370" y="170" />
            </Array>
          </mxGeometry>
        </mxCell>
        <mxCell id="xcD2mLkFD6Cfy0FQ_EIR-19" value="否" style="edgeLabel;html=1;align=center;verticalAlign=middle;resizable=0;points=[];" vertex="1" connectable="0" parent="xcD2mLkFD6Cfy0FQ_EIR-18">
          <mxGeometry x="-0.1736" relative="1" as="geometry">
            <mxPoint x="10" y="-12" as="offset" />
          </mxGeometry>
        </mxCell>
        <mxCell id="xcD2mLkFD6Cfy0FQ_EIR-44" style="edgeStyle=orthogonalEdgeStyle;rounded=0;orthogonalLoop=1;jettySize=auto;html=1;exitX=1;exitY=0.5;exitDx=0;exitDy=0;entryX=0.5;entryY=1;entryDx=0;entryDy=0;" edge="1" parent="1" source="xcD2mLkFD6Cfy0FQ_EIR-17" target="xcD2mLkFD6Cfy0FQ_EIR-23">
          <mxGeometry relative="1" as="geometry" />
        </mxCell>
        <mxCell id="xcD2mLkFD6Cfy0FQ_EIR-17" value="判断停留时间" style="rhombus;whiteSpace=wrap;html=1;" vertex="1" parent="1">
          <mxGeometry x="300" y="580" width="140" height="60" as="geometry" />
        </mxCell>
        <mxCell id="xcD2mLkFD6Cfy0FQ_EIR-31" style="edgeStyle=orthogonalEdgeStyle;rounded=0;orthogonalLoop=1;jettySize=auto;html=1;exitX=1;exitY=0.5;exitDx=0;exitDy=0;entryX=0.5;entryY=0;entryDx=0;entryDy=0;" edge="1" parent="1" source="xcD2mLkFD6Cfy0FQ_EIR-20" target="xcD2mLkFD6Cfy0FQ_EIR-23">
          <mxGeometry relative="1" as="geometry" />
        </mxCell>
        <mxCell id="xcD2mLkFD6Cfy0FQ_EIR-39" value="是" style="edgeLabel;html=1;align=center;verticalAlign=middle;resizable=0;points=[];" vertex="1" connectable="0" parent="xcD2mLkFD6Cfy0FQ_EIR-31">
          <mxGeometry x="-0.0286" y="1" relative="1" as="geometry">
            <mxPoint x="-16" y="11" as="offset" />
          </mxGeometry>
        </mxCell>
        <mxCell id="xcD2mLkFD6Cfy0FQ_EIR-35" style="edgeStyle=orthogonalEdgeStyle;rounded=0;orthogonalLoop=1;jettySize=auto;html=1;exitX=0.5;exitY=1;exitDx=0;exitDy=0;entryX=0.5;entryY=0;entryDx=0;entryDy=0;" edge="1" parent="1" source="xcD2mLkFD6Cfy0FQ_EIR-20" target="xcD2mLkFD6Cfy0FQ_EIR-17">
          <mxGeometry relative="1" as="geometry" />
        </mxCell>
        <mxCell id="xcD2mLkFD6Cfy0FQ_EIR-41" value="否" style="edgeLabel;html=1;align=center;verticalAlign=middle;resizable=0;points=[];" vertex="1" connectable="0" parent="xcD2mLkFD6Cfy0FQ_EIR-35">
          <mxGeometry x="0.08" relative="1" as="geometry">
            <mxPoint x="41" y="-20" as="offset" />
          </mxGeometry>
        </mxCell>
        <mxCell id="xcD2mLkFD6Cfy0FQ_EIR-20" value="是否存在违禁品" style="rhombus;whiteSpace=wrap;html=1;" vertex="1" parent="1">
          <mxGeometry x="459" y="460" width="140" height="60" as="geometry" />
        </mxCell>
        <mxCell id="xcD2mLkFD6Cfy0FQ_EIR-23" value="生成异常记录并警报通知" style="rounded=0;whiteSpace=wrap;html=1;" vertex="1" parent="1">
          <mxGeometry x="579" y="535" width="90" height="50" as="geometry" />
        </mxCell>
        <mxCell id="xcD2mLkFD6Cfy0FQ_EIR-32" value="生成异常记录并警报通知" style="rounded=0;whiteSpace=wrap;html=1;" vertex="1" parent="1">
          <mxGeometry x="140" y="535" width="90" height="50" as="geometry" />
        </mxCell>
        <mxCell id="xcD2mLkFD6Cfy0FQ_EIR-46" value="人体姿态检测算法" style="text;html=1;strokeColor=none;fillColor=none;align=center;verticalAlign=middle;whiteSpace=wrap;rounded=0;" vertex="1" parent="1">
          <mxGeometry x="90" y="260" width="100" height="30" as="geometry" />
        </mxCell>
        <mxCell id="xcD2mLkFD6Cfy0FQ_EIR-47" value="违禁品检测算法" style="text;html=1;strokeColor=none;fillColor=none;align=center;verticalAlign=middle;whiteSpace=wrap;rounded=0;" vertex="1" parent="1">
          <mxGeometry x="590" y="260" width="100" height="30" as="geometry" />
        </mxCell>
      </root>
    </mxGraphModel>
  </diagram>
</mxfile>
